<svg width="560" height="728" viewBox="0 0 560 728" fill="none" xmlns="http://www.w3.org/2000/svg">
<g clip-path="url(#clip0_3926_433)">
<path d="M532.02 83.9995V55.999H476.02V27.9985H448.02V-0.00195312H364.02V27.9985H336.02V280.003H308.02V308.003H28.0195V336.004H0.0195312V420.005H28.0195V448.006V476.006H56.0195V504.007H84.0195V532.007H112.02V560.007H168.02V588.008H196.02V616.008H308.02V588.008H364.02V560.007H420.02V532.007H448.02V504.007H476.02V448.006H504.02V336.004H476.02V280.003H448.02V140H560.02V83.9995H532.02Z" fill="#A28663"/>
<path d="M532.047 56.0009V84.0014H560.047V140.002H448.047V280.005H336.047V28.0005H364.047V0H448.047V28.0005H476.047V56.0009H532.047Z" fill="black"/>
<path d="M336 307V280.004H448H476V336.005H504V448.007H476V504.008H448V532.008H420V560.009H364H336V393V307Z" fill="white"/>
</g>
<rect x="336.047" y="27.9961" width="28" height="28.0005" fill="#292929"/>
<rect x="363.961" width="28" height="28.0005" fill="#292929"/>
<rect x="420.004" width="28" height="28.0005" fill="#292929"/>
<rect x="448.027" y="27.9961" width="28" height="28.0005" fill="#292929"/>
<rect x="475.996" y="55.9902" width="28" height="28.0005" fill="#292929"/>
<rect x="391.984" y="55.9902" width="28" height="28.0005" fill="#484848"/>
<rect x="503.965" y="55.9902" width="28" height="28.0005" fill="#292929"/>
<rect x="531.984" y="84.0117" width="28" height="28.0005" fill="#292929"/>
<rect x="531.984" y="112.006" width="28" height="28.0005" fill="#292929"/>
<rect x="503.965" y="112.006" width="28" height="28.0005" fill="#292929"/>
<rect x="475.996" y="112.006" width="28" height="28.0005" fill="#292929"/>
<rect x="448.027" y="112.006" width="28" height="28.0005" fill="#292929"/>
<rect x="420.004" y="140.002" width="28" height="28.0005" fill="#292929"/>
<rect x="336.047" y="140.002" width="28" height="28.0005" fill="#292929"/>
<rect x="336.047" y="112.006" width="28" height="28.0005" fill="#E5E5E5" fill-opacity="0.65"/>
<rect x="420.004" y="112.006" width="28" height="28.0005" fill="white"/>
<rect x="392" y="112.006" width="28" height="28.0005" fill="white"/>
<rect x="364" y="112.006" width="28" height="28.0005" fill="white"/>
<rect x="364" y="84" width="28" height="28.0005" fill="white"/>
<rect x="391.984" y="140.002" width="28" height="28.0005" fill="#E5E5E5" fill-opacity="0.65"/>
<rect x="391.984" y="167.996" width="28" height="28.0005" fill="#E5E5E5" fill-opacity="0.65"/>
<rect x="391.984" y="195.992" width="28" height="28.0005" fill="#E5E5E5" fill-opacity="0.65"/>
<rect x="391.984" y="224.014" width="28" height="28.0005" fill="#E5E5E5" fill-opacity="0.65"/>
<rect x="448.027" y="308.025" width="28" height="28.0005" fill="#E5E5E5" fill-opacity="0.65"/>
<rect x="336.047" y="280.004" width="28" height="28.0005" fill="#CEC4B8"/>
<rect x="448" y="448.025" width="28" height="28.0005" fill="#E5E5E5" fill-opacity="0.65"/>
<rect x="420" y="420" width="28" height="28.0005" fill="#E5E5E5" fill-opacity="0.65"/>
<rect x="392" y="392" width="28" height="28.0005" fill="#E5E5E5" fill-opacity="0.65"/>
<rect x="420" y="364" width="28" height="28.0005" fill="#E5E5E5" fill-opacity="0.65"/>
<rect x="420.004" y="475.996" width="28" height="28.0005" fill="#E5E5E5" fill-opacity="0.65"/>
<rect x="392" y="448" width="28" height="28.0005" fill="#E5E5E5" fill-opacity="0.65"/>
<rect x="391.984" y="504.016" width="28" height="28.0005" fill="#E5E5E5" fill-opacity="0.65"/>
<rect x="363.961" y="504.016" width="28" height="28.0005" fill="#E5E5E5" fill-opacity="0.65"/>
<rect x="363.961" y="532.012" width="28" height="28.0005" fill="#E5E5E5" fill-opacity="0.65"/>
<rect x="336.047" y="532.012" width="28" height="28.0005" fill="#E5E5E5" fill-opacity="0.65"/>
<rect x="308.023" y="532.012" width="28" height="28.0005" fill="#E5E5E5" fill-opacity="0.65"/>
<rect x="336" y="336" width="28" height="28.0005" fill="#CEC4B8"/>
<rect x="336" y="308" width="28" height="28.0005" fill="#CEC4B8"/>
<rect x="280.004" y="532.012" width="28" height="28.0005" fill="#E5E5E5" fill-opacity="0.65"/>
<rect x="251.98" y="560.006" width="28" height="28.0005" fill="#E5E5E5" fill-opacity="0.65"/>
<rect x="168.023" y="532.012" width="28" height="28.0005" fill="#E5E5E5" fill-opacity="0.65"/>
<rect x="111.98" y="504.016" width="28" height="28.0005" fill="#E5E5E5" fill-opacity="0.65"/>
<rect x="195.992" y="504.016" width="28" height="28.0005" fill="#E5E5E5" fill-opacity="0.65"/>
<rect x="280.004" y="448.025" width="28" height="28.0005" fill="#E5E5E5" fill-opacity="0.65"/>
<rect x="308.023" y="364.016" width="28" height="28.0005" fill="#E5E5E5" fill-opacity="0.65"/>
<rect x="336.047" y="448.025" width="28" height="28.0005" fill="#E5E5E5" fill-opacity="0.65"/>
<rect x="224.012" y="504.016" width="28" height="28.0005" fill="#E5E5E5" fill-opacity="0.65"/>
<rect x="251.98" y="504.016" width="28" height="28.0005" fill="#E5E5E5" fill-opacity="0.65"/>
<rect x="280.004" y="504.016" width="28" height="28.0005" fill="#E5E5E5" fill-opacity="0.65"/>
<rect x="140" y="475.996" width="28" height="28.0005" fill="#E5E5E5" fill-opacity="0.65"/>
<rect x="111.98" y="448.025" width="28" height="28.0005" fill="#E5E5E5" fill-opacity="0.65"/>
<rect x="55.9922" y="392.01" width="28" height="28.0005" fill="#E5E5E5" fill-opacity="0.65"/>
<rect x="28.0195" y="364.016" width="28" height="28.0005" fill="#E5E5E5" fill-opacity="0.65"/>
<rect y="364.016" width="28" height="28.0005" fill="#E5E5E5" fill-opacity="0.65"/>
<rect x="195.992" y="588.002" width="28" height="28.0005" fill="#E5E5E5" fill-opacity="0.65"/>
<rect x="448.027" y="84.0117" width="28" height="28.0005" fill="#424242"/>
<rect x="475.996" y="84.0117" width="28" height="28.0005" fill="#424242"/>
<rect x="503.965" y="84.0117" width="28" height="28.0005" fill="#424242"/>
<rect x="420.004" y="167.996" width="28" height="28.0005" fill="#292929"/>
<rect x="336.047" y="167.996" width="28" height="28.0005" fill="#292929"/>
<rect x="420.004" y="195.992" width="28" height="28.0005" fill="#292929"/>
<rect x="336.047" y="195.992" width="28" height="28.0005" fill="#292929"/>
<rect x="420.004" y="224.014" width="28" height="28.0005" fill="#292929"/>
<rect x="336.047" y="224.014" width="28" height="28.0005" fill="#292929"/>
<rect x="420.004" y="252.008" width="28" height="28.0005" fill="#292929"/>
<rect x="336.047" y="252.008" width="28" height="28.0005" fill="#292929"/>
<rect x="448.027" y="280.004" width="28" height="28.0005" fill="#141414"/>
<rect x="475.996" y="335.994" width="28" height="28.0005" fill="#141414"/>
<rect x="475.996" y="364.016" width="28" height="28.0005" fill="#141414"/>
<rect x="475.996" y="392.01" width="28" height="28.0005" fill="#141414"/>
<rect x="475.996" y="420.006" width="28" height="28.0005" fill="#141414"/>
<rect x="448.027" y="475.996" width="28" height="28.0005" fill="#141414"/>
<rect x="420.004" y="504.016" width="28" height="28.0005" fill="#141414"/>
<rect x="391.984" y="532.012" width="28" height="28.0005" fill="#141414"/>
<rect x="336.047" y="560.006" width="28" height="28.0005" fill="#141414"/>
<rect x="308.023" y="560.006" width="28" height="28.0005" fill="#141414"/>
<rect x="308.023" y="475.996" width="28" height="28.0005" fill="#141414"/>
<rect x="336.047" y="420.006" width="28" height="28.0005" fill="#141414"/>
<rect x="308.023" y="392.01" width="28" height="28.0005" fill="#141414"/>
<rect x="336.047" y="364.016" width="28" height="28.0005" fill="#141414"/>
<rect x="280.004" y="420.006" width="28" height="28.0005" fill="#141414"/>
<rect x="251.98" y="448.025" width="28" height="28.0005" fill="#141414"/>
<rect x="224.012" y="448.025" width="28" height="28.0005" fill="#141414"/>
<rect x="195.992" y="420.006" width="28" height="28.0005" fill="#141414"/>
<rect x="168.023" y="420.006" width="28" height="28.0005" fill="#141414"/>
<rect x="140" y="420.006" width="28" height="28.0005" fill="#141414"/>
<rect x="111.98" y="420.006" width="28" height="28.0005" fill="#141414"/>
<rect x="84.0117" y="420.006" width="28" height="28.0005" fill="#141414"/>
<rect x="84.0117" y="392.01" width="28" height="28.0005" fill="#141414"/>
<rect x="55.9922" y="364.016" width="28" height="28.0005" fill="#141414"/>
<rect x="28.0195" y="335.994" width="28" height="28.0005" fill="#141414"/>
<rect x="28.0195" y="308.025" width="28" height="28.0005" fill="#141414"/>
<rect x="55.9922" y="308.025" width="28" height="28.0005" fill="#141414"/>
<rect x="84.0117" y="308.025" width="28" height="28.0005" fill="#141414"/>
<rect x="111.98" y="308.025" width="28" height="28.0005" fill="#141414"/>
<rect x="140" y="308.025" width="28" height="28.0005" fill="#141414"/>
<rect x="168.023" y="308.025" width="28" height="28.0005" fill="#141414"/>
<rect x="308.023" y="280.004" width="28" height="28.0005" fill="#141414"/>
<rect y="335.994" width="28" height="28.0005" fill="#141414"/>
<rect x="140" y="448.025" width="28" height="28.0005" fill="#141414"/>
<rect x="280.004" y="560.006" width="28" height="28.0005" fill="#141414"/>
<rect x="280.004" y="588.002" width="28" height="28.0005" fill="#CEC4B8"/>
<rect x="280.004" y="615.996" width="28" height="28.0005" fill="black"/>
<rect x="280.004" y="644.018" width="28" height="28.0005" fill="black"/>
<rect x="280.004" y="672.014" width="28" height="28.0005" fill="black"/>
<rect x="308.023" y="672.014" width="28" height="28.0005" fill="black"/>
<rect x="308.023" y="700.008" width="28" height="28.0005" fill="black"/>
<rect x="336.047" y="700.008" width="28" height="28.0005" fill="black"/>
<rect x="336.047" y="672.014" width="28" height="28.0005" fill="black"/>
<rect x="363.961" y="672.014" width="28" height="28.0005" fill="black"/>
<rect x="251.98" y="588.002" width="28" height="28.0005" fill="#141414"/>
<rect x="224.012" y="588.002" width="28" height="28.0005" fill="#141414"/>
<rect x="195.992" y="560.006" width="28" height="28.0005" fill="#141414"/>
<rect x="168.023" y="560.006" width="28" height="28.0005" fill="#141414"/>
<rect x="140" y="532.012" width="28" height="28.0005" fill="#141414"/>
<rect x="111.98" y="532.012" width="28" height="28.0005" fill="#141414"/>
<rect x="84.0117" y="504.016" width="28" height="28.0005" fill="#141414"/>
<rect x="55.9922" y="475.996" width="28" height="28.0005" fill="#141414"/>
<rect x="84" y="475.996" width="28" height="28.0005" fill="#141414"/>
<rect x="168.023" y="475.996" width="28" height="28.0005" fill="#141414"/>
<rect x="195.992" y="475.996" width="28" height="28.0005" fill="#141414"/>
<rect x="28.0195" y="448.025" width="28" height="28.0005" fill="#141414"/>
<rect x="56" y="448.025" width="28" height="28.0005" fill="#141414"/>
<rect x="28.0195" y="420.006" width="28" height="28.0005" fill="#141414"/>
<rect x="28.0195" y="392" width="28" height="28.0005" fill="#141414"/>
<rect y="392.01" width="28" height="28.0005" fill="#141414"/>
<rect y="364" width="28" height="28.0005" fill="#141414"/>
<rect x="195.992" y="615.996" width="28" height="28.0005" fill="black"/>
<rect x="195.992" y="644.018" width="28" height="28.0005" fill="black"/>
<rect x="238.023" y="672.014" width="28" height="28.0005" fill="black"/>
<rect x="210.004" y="672.014" width="28" height="28.0005" fill="black"/>
<rect x="210.004" y="700.008" width="28" height="28.0005" fill="black"/>
<rect x="181.98" y="700.008" width="28" height="28.0005" fill="black"/>
<rect x="181.98" y="672.014" width="28" height="28.0005" fill="black"/>
<rect x="153.961" y="672.014" width="28" height="28.0005" fill="black"/>
<defs>
<clipPath id="clip0_3926_433">
<rect width="560" height="616.01" fill="white"/>
</clipPath>
</defs>
</svg>
