<svg width="560" height="728" viewBox="0 0 560 728" fill="none" xmlns="http://www.w3.org/2000/svg">
<g clip-path="url(#clip0_3926_307)">
<path d="M532 84V56H476V28H448V0H364V28H336V280H308V308H28V336H0V420H28V448V476H56V504H84V532H112V560H168V588H196V616H308V588H364V560H420V532H448V504H476V448H504V336H476V280H448V140H560V84H532Z" fill="#A28663"/>
</g>
<rect x="335.988" y="27.9941" width="28" height="28" fill="#141414"/>
<rect x="364.012" width="28" height="28" fill="#141414"/>
<rect x="420" width="28" height="28" fill="#141414"/>
<rect x="448.02" y="27.9941" width="28" height="28" fill="#141414"/>
<rect x="475.988" y="55.9902" width="28" height="28" fill="#141414"/>
<rect x="391.98" y="55.9902" width="28" height="28" fill="#141414"/>
<rect x="504.012" y="55.9902" width="28" height="28" fill="#141414"/>
<rect x="531.98" y="84.0098" width="28" height="28" fill="#141414"/>
<rect x="531.98" y="112.006" width="28" height="28" fill="#141414"/>
<rect x="504.012" y="112.006" width="28" height="28" fill="#141414"/>
<rect x="475.988" y="112.006" width="28" height="28" fill="#141414"/>
<rect x="448.02" y="112.006" width="28" height="28" fill="#141414"/>
<rect x="420" y="140" width="28" height="28" fill="#141414"/>
<rect x="335.988" y="140" width="28" height="28" fill="#141414"/>
<rect x="335.988" y="112.006" width="28" height="28" fill="#E5E5E5" fill-opacity="0.65"/>
<rect x="420" y="112.006" width="28" height="28" fill="#E5E5E5" fill-opacity="0.65"/>
<rect x="391.98" y="140" width="28" height="28" fill="#E5E5E5" fill-opacity="0.65"/>
<rect x="391.98" y="167.994" width="28" height="28" fill="#E5E5E5" fill-opacity="0.65"/>
<rect x="391.98" y="195.99" width="28" height="28" fill="#E5E5E5" fill-opacity="0.65"/>
<rect x="391.98" y="224.01" width="28" height="28" fill="#E5E5E5" fill-opacity="0.65"/>
<rect x="448.02" y="307.994" width="28" height="28" fill="#E5E5E5" fill-opacity="0.65"/>
<rect x="335.988" y="280" width="28" height="28" fill="#E5E5E5" fill-opacity="0.65"/>
<rect x="448.02" y="447.994" width="28" height="28" fill="#E5E5E5" fill-opacity="0.65"/>
<rect x="420" y="475.99" width="28" height="28" fill="#E5E5E5" fill-opacity="0.65"/>
<rect x="391.98" y="504.01" width="28" height="28" fill="#E5E5E5" fill-opacity="0.65"/>
<rect x="364.012" y="504.01" width="28" height="28" fill="#E5E5E5" fill-opacity="0.65"/>
<rect x="364.012" y="532.006" width="28" height="28" fill="#E5E5E5" fill-opacity="0.65"/>
<rect x="335.988" y="532.006" width="28" height="28" fill="#E5E5E5" fill-opacity="0.65"/>
<rect x="308.02" y="532.006" width="28" height="28" fill="#E5E5E5" fill-opacity="0.65"/>
<rect x="280" y="532.006" width="28" height="28" fill="#E5E5E5" fill-opacity="0.65"/>
<rect x="251.98" y="560" width="28" height="28" fill="#E5E5E5" fill-opacity="0.65"/>
<rect x="168.02" y="532.006" width="28" height="28" fill="#E5E5E5" fill-opacity="0.65"/>
<rect x="111.98" y="504.01" width="28" height="28" fill="#E5E5E5" fill-opacity="0.65"/>
<rect x="195.988" y="504.01" width="28" height="28" fill="#E5E5E5" fill-opacity="0.65"/>
<rect x="280" y="447.994" width="28" height="28" fill="#E5E5E5" fill-opacity="0.65"/>
<rect x="308.02" y="364.01" width="28" height="28" fill="#E5E5E5" fill-opacity="0.65"/>
<rect x="335.988" y="447.994" width="28" height="28" fill="#E5E5E5" fill-opacity="0.65"/>
<rect x="224.012" y="504.01" width="28" height="28" fill="#E5E5E5" fill-opacity="0.65"/>
<rect x="251.98" y="504.01" width="28" height="28" fill="#E5E5E5" fill-opacity="0.65"/>
<rect x="280" y="504.01" width="28" height="28" fill="#E5E5E5" fill-opacity="0.65"/>
<rect x="140" y="475.99" width="28" height="28" fill="#E5E5E5" fill-opacity="0.65"/>
<rect x="111.98" y="447.994" width="28" height="28" fill="#E5E5E5" fill-opacity="0.65"/>
<rect x="55.9883" y="392.006" width="28" height="28" fill="#E5E5E5" fill-opacity="0.65"/>
<rect x="28.0195" y="364.01" width="28" height="28" fill="#E5E5E5" fill-opacity="0.65"/>
<rect y="364.01" width="28" height="28" fill="#E5E5E5" fill-opacity="0.65"/>
<rect x="195.988" y="587.994" width="28" height="28" fill="#E5E5E5" fill-opacity="0.65"/>
<rect x="448.02" y="84.0098" width="28" height="28" fill="#FA8E66"/>
<rect x="475.988" y="84.0098" width="28" height="28" fill="#FA8E66"/>
<rect x="504.012" y="84.0098" width="28" height="28" fill="#FA8E66"/>
<rect x="420" y="167.994" width="28" height="28" fill="#141414"/>
<rect x="335.988" y="167.994" width="28" height="28" fill="#141414"/>
<rect x="420" y="195.99" width="28" height="28" fill="#141414"/>
<rect x="335.988" y="195.99" width="28" height="28" fill="#141414"/>
<rect x="420" y="224.01" width="28" height="28" fill="#141414"/>
<rect x="335.988" y="224.01" width="28" height="28" fill="#141414"/>
<rect x="420" y="252.006" width="28" height="28" fill="#141414"/>
<rect x="335.988" y="252.006" width="28" height="28" fill="#141414"/>
<rect x="448.02" y="280" width="28" height="28" fill="#141414"/>
<rect x="475.988" y="335.99" width="28" height="28" fill="#141414"/>
<rect x="475.988" y="364.01" width="28" height="28" fill="#141414"/>
<rect x="475.988" y="392.006" width="28" height="28" fill="#141414"/>
<rect x="475.988" y="420" width="28" height="28" fill="#141414"/>
<rect x="448.02" y="475.99" width="28" height="28" fill="#141414"/>
<rect x="420" y="504.01" width="28" height="28" fill="#141414"/>
<rect x="391.98" y="532.006" width="28" height="28" fill="#141414"/>
<rect x="335.988" y="560" width="28" height="28" fill="#141414"/>
<rect x="308.02" y="560" width="28" height="28" fill="#141414"/>
<rect x="308.02" y="475.99" width="28" height="28" fill="#141414"/>
<rect x="335.988" y="420" width="28" height="28" fill="#141414"/>
<rect x="308.02" y="392.006" width="28" height="28" fill="#141414"/>
<rect x="335.988" y="364.01" width="28" height="28" fill="#141414"/>
<rect x="280" y="420" width="28" height="28" fill="#141414"/>
<rect x="251.98" y="447.994" width="28" height="28" fill="#141414"/>
<rect x="224.012" y="447.994" width="28" height="28" fill="#141414"/>
<rect x="195.988" y="420" width="28" height="28" fill="#141414"/>
<rect x="168.02" y="420" width="28" height="28" fill="#141414"/>
<rect x="140" y="420" width="28" height="28" fill="#141414"/>
<rect x="111.98" y="420" width="28" height="28" fill="#141414"/>
<rect x="84.0117" y="420" width="28" height="28" fill="#141414"/>
<rect x="84.0117" y="392.006" width="28" height="28" fill="#141414"/>
<rect x="55.9883" y="364.01" width="28" height="28" fill="#141414"/>
<rect x="28.0195" y="335.99" width="28" height="28" fill="#141414"/>
<rect x="28.0195" y="307.994" width="28" height="28" fill="#141414"/>
<rect x="55.9883" y="307.994" width="28" height="28" fill="#141414"/>
<rect x="84.0117" y="307.994" width="28" height="28" fill="#141414"/>
<rect x="111.98" y="307.994" width="28" height="28" fill="#141414"/>
<rect x="140" y="307.994" width="28" height="28" fill="#141414"/>
<rect x="168.02" y="307.994" width="28" height="28" fill="#141414"/>
<rect x="308.02" y="280" width="28" height="28" fill="#141414"/>
<rect y="335.99" width="28" height="28" fill="#141414"/>
<rect x="140" y="447.994" width="28" height="28" fill="#141414"/>
<rect x="280" y="560" width="28" height="28" fill="#141414"/>
<rect x="280" y="587.994" width="28" height="28" fill="#141414"/>
<rect x="280" y="615.99" width="28" height="28" fill="#FA8E66"/>
<rect x="280" y="644.01" width="28" height="28" fill="#FA8E66"/>
<rect x="280" y="672.006" width="28" height="28" fill="#FA8E66"/>
<rect x="308.02" y="672.006" width="28" height="28" fill="#FA8E66"/>
<rect x="308.02" y="700" width="28" height="28" fill="#FA8E66"/>
<rect x="335.988" y="700" width="28" height="28" fill="#FA8E66"/>
<rect x="335.988" y="672.006" width="28" height="28" fill="#FA8E66"/>
<rect x="364.012" y="672.006" width="28" height="28" fill="#FA8E66"/>
<rect x="251.98" y="587.994" width="28" height="28" fill="#141414"/>
<rect x="224.012" y="587.994" width="28" height="28" fill="#141414"/>
<rect x="195.988" y="560" width="28" height="28" fill="#141414"/>
<rect x="168.02" y="560" width="28" height="28" fill="#141414"/>
<rect x="140" y="532.006" width="28" height="28" fill="#141414"/>
<rect x="111.98" y="532.006" width="28" height="28" fill="#141414"/>
<rect x="84.0117" y="504.01" width="28" height="28" fill="#141414"/>
<rect x="55.9883" y="475.99" width="28" height="28" fill="#141414"/>
<rect x="168.02" y="475.99" width="28" height="28" fill="#141414"/>
<rect x="195.988" y="475.99" width="28" height="28" fill="#141414"/>
<rect x="28.0195" y="447.994" width="28" height="28" fill="#141414"/>
<rect x="28.0195" y="420" width="28" height="28" fill="#141414"/>
<rect y="392.006" width="28" height="28" fill="#141414"/>
<rect x="195.988" y="615.99" width="28" height="28" fill="#FA8E66"/>
<rect x="195.988" y="644.01" width="28" height="28" fill="#FA8E66"/>
<rect x="238.02" y="672.006" width="28" height="28" fill="#FA8E66"/>
<rect x="210" y="672.006" width="28" height="28" fill="#FA8E66"/>
<rect x="210" y="700" width="28" height="28" fill="#FA8E66"/>
<rect x="181.98" y="700" width="28" height="28" fill="#FA8E66"/>
<rect x="181.98" y="672.006" width="28" height="28" fill="#FA8E66"/>
<rect x="154.012" y="672.006" width="28" height="28" fill="#FA8E66"/>
<defs>
<clipPath id="clip0_3926_307">
<rect width="560" height="616" fill="white"/>
</clipPath>
</defs>
</svg>
