<svg width="560" height="728" viewBox="0 0 560 728" fill="none" xmlns="http://www.w3.org/2000/svg">
<g clip-path="url(#clip0_3924_35)">
<path d="M532 84V56H476V28H448V0H364V28H336V280H308V308H28V336H0V420H28V448V476H56V504H84V532H112V560H168V588H196V616H308V588H364V560H420V532H448V504H476V448H504V336H476V280H448V140H560V84H532Z" fill="white"/>
</g>
<rect x="336" y="28" width="28" height="28" fill="black"/>
<rect x="364" width="28" height="28" fill="black"/>
<rect x="420" width="28" height="28" fill="black"/>
<rect x="448" y="28" width="28" height="28" fill="black"/>
<rect x="476" y="56" width="28" height="28" fill="black"/>
<rect x="392" y="56" width="28" height="28" fill="black"/>
<rect x="504" y="56" width="28" height="28" fill="black"/>
<rect x="532" y="84" width="28" height="28" fill="black"/>
<rect x="532" y="112" width="28" height="28" fill="black"/>
<rect x="504" y="112" width="28" height="28" fill="black"/>
<rect x="476" y="112" width="28" height="28" fill="black"/>
<rect x="448" y="112" width="28" height="28" fill="black"/>
<rect x="420" y="140" width="28" height="28" fill="black"/>
<rect x="336" y="140" width="28" height="28" fill="black"/>
<rect x="336" y="112" width="28" height="28" fill="black" fill-opacity="0.5"/>
<rect x="420" y="112" width="28" height="28" fill="black" fill-opacity="0.5"/>
<rect x="392" y="140" width="28" height="28" fill="#E5E5E5"/>
<rect x="392" y="168" width="28" height="28" fill="#E5E5E5"/>
<rect x="392" y="196" width="28" height="28" fill="#E5E5E5"/>
<rect x="392" y="224" width="28" height="28" fill="#E5E5E5"/>
<rect x="448" y="308" width="28" height="28" fill="black" fill-opacity="0.5"/>
<rect x="336" y="280" width="28" height="28" fill="black" fill-opacity="0.5"/>
<rect x="196" y="308" width="28" height="28" fill="black" fill-opacity="0.1"/>
<rect x="224" y="308" width="28" height="28" fill="black" fill-opacity="0.1"/>
<rect x="252" y="308" width="28" height="28" fill="black" fill-opacity="0.1"/>
<rect x="280" y="308" width="28" height="28" fill="black" fill-opacity="0.1"/>
<rect x="336" y="84" width="28" height="28" fill="black" fill-opacity="0.1"/>
<rect x="336" y="56" width="28" height="28" fill="black" fill-opacity="0.1"/>
<rect x="392" width="28" height="28" fill="black" fill-opacity="0.1"/>
<rect x="448" y="448" width="28" height="28" fill="black" fill-opacity="0.5"/>
<rect x="420" y="476" width="28" height="28" fill="black" fill-opacity="0.5"/>
<rect x="392" y="504" width="28" height="28" fill="black" fill-opacity="0.5"/>
<rect x="364" y="504" width="28" height="28" fill="black" fill-opacity="0.5"/>
<rect x="364" y="532" width="28" height="28" fill="black" fill-opacity="0.5"/>
<rect x="336" y="532" width="28" height="28" fill="black" fill-opacity="0.5"/>
<rect x="308" y="532" width="28" height="28" fill="black" fill-opacity="0.5"/>
<rect x="280" y="532" width="28" height="28" fill="black" fill-opacity="0.5"/>
<rect x="252" y="560" width="28" height="28" fill="black" fill-opacity="0.5"/>
<rect x="168" y="532" width="28" height="28" fill="black" fill-opacity="0.5"/>
<rect x="112" y="504" width="28" height="28" fill="black" fill-opacity="0.5"/>
<rect x="196" y="504" width="28" height="28" fill="black" fill-opacity="0.5"/>
<rect x="280" y="448" width="28" height="28" fill="black" fill-opacity="0.5"/>
<rect x="308" y="364" width="28" height="28" fill="black" fill-opacity="0.5"/>
<rect x="336" y="448" width="28" height="28" fill="black" fill-opacity="0.5"/>
<rect x="224" y="504" width="28" height="28" fill="black" fill-opacity="0.5"/>
<rect x="252" y="504" width="28" height="28" fill="black" fill-opacity="0.5"/>
<rect x="280" y="504" width="28" height="28" fill="black" fill-opacity="0.5"/>
<rect x="140" y="476" width="28" height="28" fill="black" fill-opacity="0.5"/>
<rect x="112" y="448" width="28" height="28" fill="black" fill-opacity="0.5"/>
<rect x="56" y="392" width="28" height="28" fill="black" fill-opacity="0.5"/>
<rect x="28" y="364" width="28" height="28" fill="black" fill-opacity="0.5"/>
<rect y="364" width="28" height="28" fill="black" fill-opacity="0.5"/>
<rect x="196" y="588" width="28" height="28" fill="black"/>
<rect x="448" y="84" width="28" height="28" fill="#F15F29"/>
<rect x="476" y="84" width="28" height="28" fill="#F15F29"/>
<rect x="504" y="84" width="28" height="28" fill="#F15F29"/>
<rect x="420" y="168" width="28" height="28" fill="black"/>
<rect x="336" y="168" width="28" height="28" fill="black"/>
<rect x="420" y="196" width="28" height="28" fill="black"/>
<rect x="336" y="196" width="28" height="28" fill="black"/>
<rect x="420" y="224" width="28" height="28" fill="black"/>
<rect x="336" y="224" width="28" height="28" fill="black"/>
<rect x="420" y="252" width="28" height="28" fill="black"/>
<rect x="336" y="252" width="28" height="28" fill="black"/>
<rect x="448" y="280" width="28" height="28" fill="black"/>
<rect x="476" y="336" width="28" height="28" fill="black"/>
<rect x="476" y="364" width="28" height="28" fill="black"/>
<rect x="476" y="392" width="28" height="28" fill="black"/>
<rect x="476" y="420" width="28" height="28" fill="black"/>
<rect x="448" y="476" width="28" height="28" fill="black"/>
<rect x="420" y="504" width="28" height="28" fill="black"/>
<rect x="392" y="532" width="28" height="28" fill="black"/>
<rect x="336" y="560" width="28" height="28" fill="black"/>
<rect x="308" y="560" width="28" height="28" fill="black"/>
<rect x="308" y="476" width="28" height="28" fill="black"/>
<rect x="336" y="420" width="28" height="28" fill="black"/>
<rect x="308" y="392" width="28" height="28" fill="black"/>
<rect x="336" y="364" width="28" height="28" fill="black"/>
<rect x="280" y="420" width="28" height="28" fill="black"/>
<rect x="252" y="448" width="28" height="28" fill="black"/>
<rect x="224" y="448" width="28" height="28" fill="black"/>
<rect x="196" y="420" width="28" height="28" fill="black"/>
<rect x="168" y="420" width="28" height="28" fill="black"/>
<rect x="140" y="420" width="28" height="28" fill="black"/>
<rect x="112" y="420" width="28" height="28" fill="black"/>
<rect x="84" y="420" width="28" height="28" fill="black"/>
<rect x="84" y="392" width="28" height="28" fill="black"/>
<rect x="56" y="364" width="28" height="28" fill="black"/>
<rect x="28" y="336" width="28" height="28" fill="black"/>
<rect x="28" y="308" width="28" height="28" fill="black"/>
<rect x="56" y="308" width="28" height="28" fill="black"/>
<rect x="84" y="308" width="28" height="28" fill="black"/>
<rect x="112" y="308" width="28" height="28" fill="black"/>
<rect x="140" y="308" width="28" height="28" fill="black"/>
<rect x="168" y="308" width="28" height="28" fill="black"/>
<rect x="308" y="280" width="28" height="28" fill="black"/>
<rect y="336" width="28" height="28" fill="black"/>
<rect x="140" y="448" width="28" height="28" fill="black"/>
<rect x="280" y="560" width="28" height="28" fill="black"/>
<rect x="280" y="588" width="28" height="28" fill="black"/>
<rect x="280" y="616" width="28" height="28" fill="#F15F29"/>
<rect x="280" y="644" width="28" height="28" fill="#F15F29"/>
<rect x="280" y="672" width="28" height="28" fill="#F15F29"/>
<rect x="308" y="672" width="28" height="28" fill="#F15F29"/>
<rect x="308" y="700" width="28" height="28" fill="#F15F29"/>
<rect x="336" y="700" width="28" height="28" fill="#F15F29"/>
<rect x="336" y="672" width="28" height="28" fill="#F15F29"/>
<rect x="364" y="672" width="28" height="28" fill="#F15F29"/>
<rect x="252" y="588" width="28" height="28" fill="black"/>
<rect x="224" y="588" width="28" height="28" fill="black"/>
<rect x="196" y="560" width="28" height="28" fill="black"/>
<rect x="168" y="560" width="28" height="28" fill="black"/>
<rect x="140" y="532" width="28" height="28" fill="black"/>
<rect x="112" y="532" width="28" height="28" fill="black"/>
<rect x="84" y="504" width="28" height="28" fill="black"/>
<rect x="56" y="476" width="28" height="28" fill="black"/>
<rect x="168" y="476" width="28" height="28" fill="black"/>
<rect x="196" y="476" width="28" height="28" fill="black"/>
<rect x="28" y="448" width="28" height="28" fill="black"/>
<rect x="28" y="420" width="28" height="28" fill="black"/>
<rect y="392" width="28" height="28" fill="black"/>
<rect x="196" y="616" width="28" height="28" fill="#F15F29"/>
<rect x="196" y="644" width="28" height="28" fill="#F15F29"/>
<rect x="238" y="672" width="28" height="28" fill="#F15F29"/>
<rect x="210" y="672" width="28" height="28" fill="#F15F29"/>
<rect x="210" y="700" width="28" height="28" fill="#F15F29"/>
<rect x="182" y="700" width="28" height="28" fill="#F15F29"/>
<rect x="182" y="672" width="28" height="28" fill="#F15F29"/>
<rect x="154" y="672" width="28" height="28" fill="#F15F29"/>
<defs>
<clipPath id="clip0_3924_35">
<rect width="560" height="616" fill="white"/>
</clipPath>
</defs>
</svg>
