<svg width="560" height="728" viewBox="0 0 560 728" fill="none" xmlns="http://www.w3.org/2000/svg">
<g clip-path="url(#clip0_3976_1458)">
<path d="M532.02 83.9995V55.999H476.02V27.9985H448.02V-0.00195312H364.02V27.9985H336.02V280.003H308.02V308.003H28.0195V336.004H0.0195312V420.005H28.0195V448.006V476.006H56.0195V504.007H84.0195V532.007H112.02V560.007H168.02V588.008H196.02V616.008H308.02V588.008H364.02V560.007H420.02V532.007H448.02V504.007H476.02V448.006H504.02V336.004H476.02V280.003H448.02V140H560.02V83.9995H532.02Z" fill="#757472"/>
<path d="M532.047 56.0009V84.0014H560.047V140.002H448.047V196H336.047V28.0005H364.047V0H448.047V28.0005H476.047V56.0009H532.047Z" fill="#A8A8A8"/>
<path d="M336.5 308.5V280.004H446.67H476V336.005H504V448.007H476V504.008L448 504V532.008H420V560.009H364V588H168V560.009L112 532L56 476H28V392H56V420H84V448H112V476H140.5V504H168H224V476H280L280.5 420H308V364.5H336.5V308.5Z" fill="#CAC1B3"/>
</g>
<rect x="336.047" y="27.9961" width="28" height="28.0005" fill="#292929" fill-opacity="0.5"/>
<rect x="363.961" width="28" height="28.0005" fill="#292929" fill-opacity="0.5"/>
<rect x="420.004" width="28" height="28.0005" fill="#292929" fill-opacity="0.3"/>
<rect x="448.027" y="27.9961" width="28" height="28.0005" fill="#292929" fill-opacity="0.3"/>
<rect x="448.027" y="56" width="28" height="28.0005" fill="#DB959F"/>
<rect x="475.996" y="55.9902" width="28" height="28.0005" fill="#DB959F"/>
<rect x="391.984" y="55.9902" width="28" height="28.0005" fill="black"/>
<rect x="391.984" y="84" width="28" height="28.0005" fill="#7A3319"/>
<rect x="364" y="84" width="28" height="28.0005" fill="#D0D0D0"/>
<rect x="364" y="56" width="28" height="28.0005" fill="#7A3319"/>
<rect x="364" y="28" width="28" height="28.0005" fill="#A8A8A8"/>
<rect x="392" y="28" width="28" height="28.0005" fill="#7A3319"/>
<rect x="420" y="28" width="28" height="28.0005" fill="#A8A8A8"/>
<rect x="420" y="56" width="28" height="28.0005" fill="#7A3319"/>
<rect x="420" y="84" width="28" height="28.0005" fill="#A8A8A8"/>
<rect x="503.965" y="55.9902" width="28" height="28.0005" fill="#061236"/>
<rect x="531.984" y="84.0117" width="28" height="28.0005" fill="#061236"/>
<rect x="531.984" y="112.006" width="28" height="28.0005" fill="#061236"/>
<rect x="503.965" y="112.006" width="28" height="28.0005" fill="#061236"/>
<rect x="475.996" y="112.006" width="28" height="28.0005" fill="#061236"/>
<rect x="448.027" y="112.006" width="28" height="28.0005" fill="#061236"/>
<rect x="420.004" y="140.002" width="28" height="28.0005" fill="#292929"/>
<rect x="336.047" y="140.002" width="28" height="28.0005" fill="#696969"/>
<rect x="336.047" y="112.006" width="28" height="28.0005" fill="#696969"/>
<rect x="420.004" y="112.006" width="28" height="28.0005" fill="#E5E5E5" fill-opacity="0.65"/>
<rect x="391.984" y="140.002" width="28" height="28.0005" fill="#E5E5E5" fill-opacity="0.65"/>
<rect x="391.984" y="167.996" width="28" height="28.0005" fill="#E5E5E5" fill-opacity="0.65"/>
<rect x="391.984" y="195.992" width="28" height="28.0005" fill="#E5E5E5" fill-opacity="0.65"/>
<rect x="391.984" y="224.014" width="28" height="28.0005" fill="#E5E5E5" fill-opacity="0.65"/>
<rect x="391.984" y="252" width="28" height="28.0005" fill="#7A3319"/>
<rect x="448.027" y="308.025" width="28" height="28.0005" fill="#E5E5E5" fill-opacity="0.65"/>
<rect x="336.047" y="308" width="28" height="28.0005" fill="#E5E5E5" fill-opacity="0.65"/>
<rect x="448.027" y="448.025" width="28" height="28.0005" fill="#511E1D"/>
<rect x="420.004" y="475.996" width="28" height="28.0005" fill="#511E1D"/>
<rect x="420.004" y="448" width="28" height="28.0005" fill="#7A3319"/>
<rect x="392" y="479" width="28" height="28.0005" fill="#7A3319"/>
<rect x="391.984" y="504.016" width="28" height="28.0005" fill="#511E1D"/>
<rect x="363.961" y="504.016" width="28" height="28.0005" fill="#E5E5E5" fill-opacity="0.65"/>
<rect x="363.961" y="532.012" width="28" height="28.0005" fill="#511E1D"/>
<rect x="336.047" y="532.012" width="28" height="28.0005" fill="#E5E5E5" fill-opacity="0.65"/>
<rect x="308.023" y="532.012" width="28" height="28.0005" fill="#E5E5E5" fill-opacity="0.65"/>
<rect x="280.004" y="532.012" width="28" height="28.0005" fill="#E5E5E5" fill-opacity="0.65"/>
<rect x="251.98" y="560.006" width="28" height="28.0005" fill="#E5E5E5" fill-opacity="0.65"/>
<rect x="168.023" y="532.012" width="28" height="28.0005" fill="#A76331"/>
<rect x="111.98" y="504.016" width="28" height="28.0005" fill="white"/>
<rect x="140" y="504.016" width="28" height="28.0005" fill="#A76331"/>
<rect x="168" y="504.016" width="28" height="28.0005" fill="#A76331"/>
<rect x="195.992" y="504.016" width="28" height="28.0005" fill="#E5E5E5" fill-opacity="0.65"/>
<rect x="280.004" y="448.025" width="28" height="28.0005" fill="#E5E5E5" fill-opacity="0.65"/>
<rect x="308.023" y="364.016" width="28" height="28.0005" fill="#E5E5E5" fill-opacity="0.65"/>
<rect x="224.012" y="504.016" width="28" height="28.0005" fill="#E5E5E5" fill-opacity="0.65"/>
<rect x="251.98" y="504.016" width="28" height="28.0005" fill="#E5E5E5" fill-opacity="0.65"/>
<rect x="280.004" y="504.016" width="28" height="28.0005" fill="#E5E5E5" fill-opacity="0.65"/>
<rect x="140" y="475.996" width="28" height="28.0005" fill="#E5E5E5" fill-opacity="0.65"/>
<rect x="111.98" y="448.025" width="28" height="28.0005" fill="white"/>
<rect x="56" y="448.025" width="28" height="28.0005" fill="#326C5B"/>
<rect x="56" y="420" width="28" height="28.0005" fill="#326C5B"/>
<rect x="84" y="420" width="28" height="28.0005" fill="#326C5B"/>
<rect x="111.98" y="476" width="28" height="28.0005" fill="white"/>
<rect x="55.9922" y="392.01" width="28" height="28.0005" fill="#822220"/>
<rect x="28.0195" y="364.016" width="28" height="28.0005" fill="#9F0C0C" fill-opacity="0.65"/>
<rect x="28.0195" y="392" width="28" height="28.0005" fill="#9F0C0C" fill-opacity="0.65"/>
<rect y="364.016" width="28" height="28.0005" fill="#ADADAD"/>
<rect x="195.992" y="588.002" width="28" height="28.0005" fill="#E5E5E5" fill-opacity="0.65"/>
<rect x="448.027" y="84.0117" width="28" height="28.0005" fill="#DF5467"/>
<rect x="475.996" y="84.0117" width="28" height="28.0005" fill="#DF5467"/>
<rect x="503.965" y="84.0117" width="28" height="28.0005" fill="#DF5467"/>
<rect x="420.004" y="167.996" width="28" height="28.0005" fill="#292929"/>
<rect x="336.047" y="167.996" width="28" height="28.0005" fill="#696969"/>
<rect x="420.004" y="195.992" width="28" height="28.0005" fill="#292929"/>
<rect x="336.047" y="195.992" width="28" height="28.0005" fill="#7A3319"/>
<rect x="364" y="195.992" width="28" height="28.0005" fill="#7A3319"/>
<rect x="364" y="224" width="28" height="28.0005" fill="#7A3319"/>
<rect x="364" y="252" width="28" height="28.0005" fill="#7A3319"/>
<rect x="420.004" y="224.014" width="28" height="28.0005" fill="#292929"/>
<rect x="336.047" y="224.014" width="28" height="28.0005" fill="#511E1D"/>
<rect x="420.004" y="252.008" width="28" height="28.0005" fill="#7A3319"/>
<rect x="336.047" y="252.008" width="28" height="28.0005" fill="#511E1D"/>
<rect x="448.027" y="280.004" width="28" height="28.0005" fill="#141414"/>
<rect x="475.996" y="335.994" width="28" height="28.0005" fill="#DCD9D4"/>
<rect x="475.996" y="392.01" width="28" height="28.0005" fill="#DCD9D4"/>
<rect x="475.996" y="420.006" width="28" height="28.0005" fill="#511E1D"/>
<rect x="448.027" y="475.996" width="28" height="28.0005" fill="#141414"/>
<rect x="420.004" y="504.016" width="28" height="28.0005" fill="#141414"/>
<rect x="391.984" y="532.012" width="28" height="28.0005" fill="#141414"/>
<rect x="336.047" y="560.006" width="28" height="28.0005" fill="#757472"/>
<rect x="308.023" y="560.006" width="28" height="28.0005" fill="#757472"/>
<rect x="336" y="476" width="28" height="28.0005" fill="#DCD9D4"/>
<rect x="364" y="448" width="28" height="28.0005" fill="#DCD9D4"/>
<rect x="392" y="420" width="28" height="28.0005" fill="#DCD9D4"/>
<rect x="448" y="365" width="28" height="28.0005" fill="#DCD9D4"/>
<rect x="364" y="280" width="28" height="28.0005" fill="#DCD9D4"/>
<rect x="420" y="280" width="28" height="28.0005" fill="#DCD9D4"/>
<rect x="308.023" y="392.01" width="28" height="28.0005" fill="#141414"/>
<rect x="336.047" y="364.016" width="28" height="28.0005" fill="#141414"/>
<rect x="280.004" y="420.006" width="28" height="28.0005" fill="#141414"/>
<rect x="251.98" y="448.025" width="28" height="28.0005" fill="#141414"/>
<rect x="224.012" y="448.025" width="28" height="28.0005" fill="white"/>
<rect x="195.992" y="420.006" width="28" height="28.0005" fill="#DCD9D4"/>
<rect x="168.023" y="420.006" width="28" height="28.0005" fill="#DCD9D4"/>
<rect x="140" y="420.006" width="28" height="28.0005" fill="#DCD9D4"/>
<rect x="111.98" y="420.006" width="28" height="28.0005" fill="#141414"/>
<path d="M84.0117 448H112.012V476H84.0117V448Z" fill="#326C5B"/>
<path d="M56 476.012H84V504.012H56V476.012Z" fill="#326C5B"/>
<rect x="84.0117" y="392.01" width="28" height="28.0005" fill="#AE4C47"/>
<rect x="84.0117" y="476" width="28" height="28.0005" fill="white"/>
<rect x="55.9922" y="364.016" width="28" height="28.0005" fill="#822220"/>
<rect x="55.9922" y="336" width="28" height="28.0005" fill="#ADADAD"/>
<rect x="84" y="336" width="28" height="28.0005" fill="#822220"/>
<rect x="112" y="336" width="28" height="28.0005" fill="#822220"/>
<rect x="140" y="336" width="28" height="28.0005" fill="#BEBEBD"/>
<rect x="84" y="364.016" width="28" height="28.0005" fill="#822220"/>
<rect x="112" y="364.016" width="28" height="28.0005" fill="#AE4C47"/>
<rect x="28.0195" y="335.994" width="28" height="28.0005" fill="#ADADAD"/>
<rect x="28.0195" y="308.025" width="28" height="28.0005" fill="#141414"/>
<rect x="55.9922" y="308.025" width="28" height="28.0005" fill="#5B5A5A"/>
<rect x="84.0117" y="308.025" width="28" height="28.0005" fill="#5B5A5A"/>
<rect x="111.98" y="308.025" width="28" height="28.0005" fill="#5B5A5A"/>
<rect x="140" y="308.025" width="28" height="28.0005" fill="#5B5A5A"/>
<rect x="168.023" y="308.025" width="28" height="28.0005" fill="#BEBEBD"/>
<rect x="196" y="308.025" width="28" height="28.0005" fill="#BEBEBD"/>
<rect x="196" y="365" width="28" height="28.0005" fill="#BEBEBD"/>
<rect x="224" y="365" width="28" height="28.0005" fill="#BEBEBD"/>
<rect x="224" y="308.025" width="28" height="28.0005" fill="#BEBEBD"/>
<rect x="252" y="308.025" width="28" height="28.0005" fill="#BEBEBD"/>
<rect x="280" y="308.025" width="28" height="28.0005" fill="#BEBEBD"/>
<rect x="308" y="308.025" width="28" height="28.0005" fill="#BEBEBD"/>
<rect x="308.023" y="280.004" width="28" height="28.0005" fill="#141414"/>
<rect y="335.994" width="28" height="28.0005" fill="#141414"/>
<rect x="140" y="448.025" width="28" height="28.0005" fill="white"/>
<rect x="280.004" y="560.006" width="28" height="28.0005" fill="#757472"/>
<rect x="280.004" y="588.002" width="28" height="28.0005" fill="#B0AFAD"/>
<rect x="280.004" y="615.996" width="28" height="28.0005" fill="#DF5467"/>
<rect x="280.004" y="644.018" width="28" height="28.0005" fill="#DF5467"/>
<rect x="280.004" y="672.014" width="28" height="28.0005" fill="#DF5467"/>
<rect x="308.023" y="672.014" width="28" height="28.0005" fill="#DF5467"/>
<rect x="308.023" y="700.008" width="28" height="28.0005" fill="#DF5467"/>
<rect x="336.047" y="700.008" width="28" height="28.0005" fill="#DF5467"/>
<rect x="336.047" y="672.014" width="28" height="28.0005" fill="#DF5467"/>
<rect x="363.961" y="672.014" width="28" height="28.0005" fill="#DF5467"/>
<rect x="251.98" y="588.002" width="28" height="28.0005" fill="#B0AFAD"/>
<rect x="224.012" y="588.002" width="28" height="28.0005" fill="#B0AFAD"/>
<rect x="195.992" y="560.006" width="28" height="28.0005" fill="#757472"/>
<rect x="168.023" y="560.006" width="28" height="28.0005" fill="#757472"/>
<rect x="140" y="532.012" width="28" height="28.0005" fill="#A76331"/>
<rect x="111.98" y="532.012" width="28" height="28.0005" fill="#A76331"/>
<rect x="84.0117" y="504.016" width="28" height="28.0005" fill="#141414"/>
<rect x="55.9922" y="475.996" width="28" height="28.0005" fill="#141414"/>
<rect x="168.023" y="475.996" width="28" height="28.0005" fill="#141414"/>
<rect x="195.992" y="475.996" width="28" height="28.0005" fill="#141414"/>
<rect x="28.0195" y="448.025" width="28" height="28.0005" fill="#141414"/>
<rect x="28.0195" y="420.006" width="28" height="28.0005" fill="#141414"/>
<rect y="392.01" width="28" height="28.0005" fill="#141414"/>
<rect x="195.992" y="615.996" width="28" height="28.0005" fill="#DF5467"/>
<rect x="195.992" y="644.018" width="28" height="28.0005" fill="#DF5467"/>
<rect x="238.023" y="672.014" width="28" height="28.0005" fill="#DF5467"/>
<rect x="210.004" y="672.014" width="28" height="28.0005" fill="#DF5467"/>
<rect x="210.004" y="700.008" width="28" height="28.0005" fill="#DF5467"/>
<rect x="181.98" y="700.008" width="28" height="28.0005" fill="#DF5467"/>
<rect x="181.98" y="672.014" width="28" height="28.0005" fill="#DF5467"/>
<rect x="153.961" y="672.014" width="28" height="28.0005" fill="#DF5467"/>
<defs>
<clipPath id="clip0_3976_1458">
<rect width="560" height="616.01" fill="white"/>
</clipPath>
</defs>
</svg>
